<svg xmlns="http://www.w3.org/2000/svg" version="1.1" xmlns:xlink="http://www.w3.org/1999/xlink" width="512" height="512" x="0" y="0" viewBox="0 0 512 512" style="enable-background:new 0 0 512 512" xml:space="preserve" class=""><g><g data-name="Hosting-server-cloud copy"><circle cx="464" cy="376" r="24" fill="#ffd648" opacity="1" data-original="#ffd648"></circle><circle cx="376" cy="464" r="24" fill="#ffd648" opacity="1" data-original="#ffd648"></circle><circle cx="256" cy="448" r="24" fill="#ffd648" opacity="1" data-original="#ffd648"></circle><circle cx="136" cy="464" r="24" fill="#ffd648" opacity="1" data-original="#ffd648"></circle><circle cx="48" cy="376" r="24" fill="#ffd648" opacity="1" data-original="#ffd648"></circle><path fill="#ffd648" d="M360 280v32a16 16 0 0 1-16 16H168a16 16 0 0 1-16-16v-32a16 16 0 0 1 16-16h176a16 16 0 0 1 16 16z" opacity="1" data-original="#ffd648"></path><rect width="208" height="64" x="152" y="200" fill="#ffd648" rx="16" opacity="1" data-original="#ffd648"></rect><rect width="208" height="64" x="152" y="136" fill="#ffd648" rx="16" opacity="1" data-original="#ffd648"></rect><path fill="#ffb300" d="M224 328h-56a16 16 0 0 1-16-16v-32a16 16 0 0 1 16-16h56a16 16 0 0 0-16 16v32a16 16 0 0 0 16 16zM224 264h-56a16 16 0 0 1-16-16v-32a16 16 0 0 1 16-16h56a16 16 0 0 0-16 16v32a16 16 0 0 0 16 16zM224 200h-56a16 16 0 0 1-16-16v-32a16 16 0 0 1 16-16h56a16 16 0 0 0-16 16v32a16 16 0 0 0 16 16z" opacity="1" data-original="#ffb300"></path><path fill="#00d0ce" d="M416 136a72 72 0 0 1 0 144h-56a16 16 0 0 0-16-16 16 16 0 0 0 16-16v-32a16 16 0 0 0-16-16 16 16 0 0 0 16-16v-32a16 16 0 0 0-16-16H168a16 16 0 0 0-16 16v32a16 16 0 0 0 16 16 16 16 0 0 0-16 16v32a16 16 0 0 0 16 16 16 16 0 0 0-16 16h-40a88 88 0 1 1 14.4-174.83 144.037 144.037 0 0 1 270.58 33.38A71.505 71.505 0 0 1 416 136z" opacity="1" data-original="#00d0ce" class=""></path><path fill="#00a5ab" d="M256 24a144.26 144.26 0 0 1 32.01 3.57 144.245 144.245 0 0 0-97.61 77.6 88.017 88.017 0 0 0-38.08 171.6A16.457 16.457 0 0 0 152 280h-40a88 88 0 1 1 14.4-174.83A143.993 143.993 0 0 1 256 24zM384 200a16 16 0 0 1 16 16v32a16 16 0 0 1-16 16 15.99 15.99 0 0 1 15.99 15.56 72.663 72.663 0 0 1-7.99.44h-32a16 16 0 0 0-16-16 16 16 0 0 0 16-16v-32a16 16 0 0 0-16-16 16 16 0 0 0 16-16v-32a16 16 0 0 0-16-16s37.91.55 42.57.2A16 16 0 0 1 400 152v32a16 16 0 0 1-16 16z" opacity="1" data-original="#00a5ab" class=""></path><g fill="#00074e"><path d="M176 160h96v16h-96zM288 160h16v16h-16zM320 160h16v16h-16zM176 224h96v16h-96zM288 224h16v16h-16zM320 224h16v16h-16zM176 288h96v16h-96zM288 288h16v16h-16zM320 288h16v16h-16z" fill="#00074e" opacity="1" data-original="#00074e" class=""></path><path d="M464 344a32.057 32.057 0 0 0-30.987 24H344v-32a24.028 24.028 0 0 0 24-24v-24h48a80 80 0 1 0-13.044-158.939A152.031 152.031 0 0 0 121.841 96.5 97.271 97.271 0 0 0 112 96a96 96 0 0 0 0 192h32v24a24.028 24.028 0 0 0 24 24v32H78.987a32 32 0 1 0 0 16H176a8 8 0 0 0 8-8v-40h16v64h-64a8 8 0 0 0-8 8v25.013a32 32 0 1 0 16 0V416h64a8 8 0 0 0 8-8v-72h32v81.013a32 32 0 1 0 16 0V336h32v72a8 8 0 0 0 8 8h64v17.013a32 32 0 1 0 16 0V408a8 8 0 0 0-8-8h-64v-64h16v40a8 8 0 0 0 8 8h97.013A32 32 0 1 0 464 344zM48 392a16 16 0 1 1 16-16 16.019 16.019 0 0 1-16 16zm104 72a16 16 0 1 1-16-16 16.019 16.019 0 0 1 16 16zm120-16a16 16 0 1 1-16-16 16.019 16.019 0 0 1 16 16zm120 16a16 16 0 1 1-16-16 16.019 16.019 0 0 1 16 16zM160 184v-32a8.009 8.009 0 0 1 8-8h176a8.009 8.009 0 0 1 8 8v32a8.009 8.009 0 0 1-8 8H168a8.009 8.009 0 0 1-8-8zm0 64v-32a8.009 8.009 0 0 1 8-8h176a8.009 8.009 0 0 1 8 8v32a8.009 8.009 0 0 1-8 8H168a8.009 8.009 0 0 1-8-8zM32 192a80.091 80.091 0 0 1 80-80 80.944 80.944 0 0 1 13.1 1.064 7.994 7.994 0 0 0 8.5-4.4 136.036 136.036 0 0 1 255.55 31.513 8 8 0 0 0 9.958 6.085A64 64 0 1 1 416 272h-49.376a24.015 24.015 0 0 0-4.755-8A23.9 23.9 0 0 0 368 248v-32a23.9 23.9 0 0 0-6.131-16A23.9 23.9 0 0 0 368 184v-32a24.028 24.028 0 0 0-24-24H168a24.028 24.028 0 0 0-24 24v32a23.9 23.9 0 0 0 6.131 16A23.9 23.9 0 0 0 144 216v32a23.9 23.9 0 0 0 6.131 16 24.015 24.015 0 0 0-4.755 8H112a80.091 80.091 0 0 1-80-80zm128 120v-32a8.009 8.009 0 0 1 8-8h176a8.009 8.009 0 0 1 8 8v32a8.009 8.009 0 0 1-8 8H168a8.009 8.009 0 0 1-8-8zm304 80a16 16 0 1 1 16-16 16.019 16.019 0 0 1-16 16z" fill="#00074e" opacity="1" data-original="#00074e" class=""></path></g></g></g></svg>