<svg xmlns="http://www.w3.org/2000/svg" version="1.1" xmlns:xlink="http://www.w3.org/1999/xlink" width="512" height="512" x="0" y="0" viewBox="0 0 512 512" style="enable-background:new 0 0 512 512" xml:space="preserve" class=""><g><path fill="#26c4b1" d="M394.668 160c0-11.781-9.55-21.332-21.336-21.332H32c-11.781 0-21.332 9.55-21.332 21.332v213.332h384zm0 0" opacity="1" data-original="#26c4b1" class=""></path><path fill="#cbd3db" d="M10.668 373.332V416c0 11.781 9.55 21.332 21.332 21.332h341.332c11.785 0 21.336-9.55 21.336-21.332v-42.668zm0 0" opacity="1" data-original="#cbd3db" class=""></path><path fill="#6c8199" d="M138.668 437.332h128v64h-128zm0 0" opacity="1" data-original="#6c8199" class=""></path><path fill="#fecd2a" d="M501.332 96v42.668h-24.105a88.467 88.467 0 0 1-9.067 21.973l17.067 17.066-30.188 30.188-17.066-17.067A88.467 88.467 0 0 1 416 199.895V224h-42.668v-24.105a88.467 88.467 0 0 1-21.973-9.067l-17.066 17.067-30.188-30.188 17.067-17.066a88.467 88.467 0 0 1-9.067-21.973H288V96h24.105c2.02-7.7 5.07-15.09 9.067-21.973l-17.067-17.066 30.188-30.188 17.066 17.067a88.467 88.467 0 0 1 21.973-9.067V10.668H416v24.105c7.7 2.02 15.09 5.07 21.973 9.067l17.066-17.067 30.188 30.188-17.067 17.066A88.467 88.467 0 0 1 477.227 96zm-74.664 21.332c0-17.672-14.328-32-32-32-17.676 0-32 14.328-32 32 0 17.676 14.324 32 32 32 17.672 0 32-14.324 32-32zm0 0" opacity="1" data-original="#fecd2a"></path><path fill="#ffffff" d="M128 42.668C128 54.449 118.45 64 106.668 64c-11.785 0-21.336-9.55-21.336-21.332 0-11.785 9.55-21.336 21.336-21.336 11.781 0 21.332 9.55 21.332 21.336zM128 224c0 11.781-9.55 21.332-21.332 21.332-11.785 0-21.336-9.55-21.336-21.332s9.55-21.332 21.336-21.332c11.781 0 21.332 9.55 21.332 21.332zM341.332 352c0 11.781-9.55 21.332-21.332 21.332s-21.332-9.55-21.332-21.332 9.55-21.332 21.332-21.332 21.332 9.55 21.332 21.332zm0 0" opacity="1" data-original="#ffffff"></path><g fill="#3d4249"><path d="M384 416c0 5.89-4.777 10.668-10.668 10.668H32c-5.89 0-10.668-4.777-10.668-10.668v-32h245.336v-21.332H21.332V160c0-5.89 4.777-10.668 10.668-10.668h138.668V128H32c-17.672 0-32 14.328-32 32v256c0 17.672 14.328 32 32 32h96v42.668h-21.332V512h192v-21.332h-21.336V448h96c17.676 0 32-14.328 32-32V309.332H384zm-128 74.668H149.332V448H256zM501.332 85.332h-16.234a96.686 96.686 0 0 0-3.852-9.312l11.469-11.485c4.164-4.168 4.164-10.918 0-15.086L462.55 19.285c-4.168-4.164-10.918-4.164-15.086 0L435.98 30.762a97.749 97.749 0 0 0-9.312-3.86V10.668C426.668 4.778 421.891 0 416 0h-42.668c-5.89 0-10.664 4.777-10.664 10.668v16.234a96.277 96.277 0 0 0-9.313 3.852l-11.488-11.469c-4.164-4.164-10.918-4.164-15.082 0L296.617 49.45c-4.164 4.168-4.164 10.918 0 15.086l11.48 11.485a96.773 96.773 0 0 0-3.863 9.312H288c-5.89 0-10.668 4.777-10.668 10.668v42.668c0 5.89 4.777 10.664 10.668 10.664h16.234a96.276 96.276 0 0 0 3.852 9.313l-11.469 11.488c-4.164 4.164-4.164 10.918 0 15.082l30.176 30.176c4.168 4.164 10.918 4.164 15.086 0l11.488-11.477a96.617 96.617 0 0 0 9.309 3.852V224c0 5.89 4.777 10.668 10.668 10.668h42.668c5.89 0 10.664-4.777 10.664-10.668v-16.234a96.276 96.276 0 0 0 9.312-3.852l11.489 11.477c4.168 4.164 10.918 4.164 15.082 0l30.175-30.176c4.164-4.164 4.164-10.918 0-15.082l-11.476-11.488a96.6 96.6 0 0 0 3.84-9.313h16.234c5.89 0 10.668-4.773 10.668-10.664V96c0-5.89-4.777-10.668-10.668-10.668zM490.668 128h-13.461c-4.863 0-9.11 3.293-10.328 8a74.196 74.196 0 0 1-7.945 19.2 10.667 10.667 0 0 0 1.64 12.96l9.516 9.516-15.094 15.094-9.512-9.516a10.674 10.674 0 0 0-12.96-1.645 74.263 74.263 0 0 1-19.2 7.95 10.66 10.66 0 0 0-8 10.324v13.449H384v-13.46c0-4.864-3.293-9.11-8-10.325a74.196 74.196 0 0 1-19.2-7.945 10.667 10.667 0 0 0-12.96 1.64l-9.516 9.516-15.094-15.094 9.516-9.516a10.672 10.672 0 0 0 1.645-12.96 74.15 74.15 0 0 1-7.95-19.2 10.67 10.67 0 0 0-10.324-8h-13.449v-21.32h13.46a10.67 10.67 0 0 0 10.325-8 74.222 74.222 0 0 1 7.945-19.203 10.661 10.661 0 0 0-1.64-12.957l-9.516-9.516 15.094-15.094 9.516 9.516a10.666 10.666 0 0 0 12.96 1.64 74.14 74.14 0 0 1 19.2-7.945A10.665 10.665 0 0 0 384 34.793V21.332h21.332v13.461a10.677 10.677 0 0 0 8 10.328 74.222 74.222 0 0 1 19.203 7.945 10.661 10.661 0 0 0 12.957-1.64l9.516-9.516 15.094 15.094-9.516 9.512a10.667 10.667 0 0 0-1.64 12.96 74.253 74.253 0 0 1 7.945 19.2c1.214 4.71 5.46 8 10.324 8h13.453zm0 0" fill="#3d4249" opacity="1" data-original="#3d4249" class=""></path><path d="M394.668 74.668C371.102 74.668 352 93.77 352 117.332 352 140.898 371.102 160 394.668 160c23.562 0 42.664-19.102 42.664-42.668 0-23.562-19.102-42.664-42.664-42.664zm0 64c-11.785 0-21.336-9.55-21.336-21.336 0-11.781 9.55-21.332 21.336-21.332C406.449 96 416 105.55 416 117.332c0 11.785-9.55 21.336-21.332 21.336zM106.668 74.668a32 32 0 0 0 30.035-21.336h33.965c5.89 0 10.664 4.777 10.664 10.668v53.332c0 17.676 14.328 32 32 32H256V128h-42.668c-5.89 0-10.664-4.777-10.664-10.668V64c0-17.672-14.328-32-32-32h-33.965c-5.45-15.3-21.516-24.078-37.336-20.395-15.82 3.684-26.36 18.653-24.492 34.79s15.547 28.3 31.793 28.273zm0-42.668c5.89 0 10.664 4.777 10.664 10.668s-4.773 10.664-10.664 10.664S96 48.559 96 42.668 100.777 32 106.668 32zM106.668 192c-16.293-.066-30.031 12.113-31.918 28.293-1.887 16.184 8.684 31.2 24.555 34.879 15.867 3.68 31.968-5.149 37.398-20.504H288c2.828 0 5.543-1.125 7.543-3.125l10.664-10.668-15.082-15.082-7.54 7.539H136.704A31.997 31.997 0 0 0 106.668 192zm0 42.668C100.778 234.668 96 229.891 96 224s4.777-10.668 10.668-10.668 10.664 4.777 10.664 10.668-4.773 10.668-10.664 10.668zM373.332 266.668h-32c-17.672 0-32 14.324-32 32v23.293c-14.691 5.195-23.508 20.223-20.871 35.582 2.637 15.363 15.953 26.59 31.539 26.59s28.902-11.227 31.54-26.59c2.636-15.36-6.18-30.387-20.872-35.582v-23.293c0-5.89 4.773-10.668 10.664-10.668h32c17.676 0 32-14.328 32-32H384c0 5.89-4.777 10.668-10.668 10.668zm-53.332 96c-5.89 0-10.668-4.777-10.668-10.668s4.777-10.668 10.668-10.668 10.668 4.777 10.668 10.668-4.777 10.668-10.668 10.668zm0 0" fill="#3d4249" opacity="1" data-original="#3d4249" class=""></path></g></g></svg>